<?xml version="1.0" standalone="no"?>
<!DOCTYPE svg PUBLIC "-//W3C//DTD SVG 20010904//EN"
 "http://www.w3.org/TR/2001/REC-SVG-20010904/DTD/svg10.dtd">
<svg version="1.0" xmlns="http://www.w3.org/2000/svg"
 width="512.000000pt" height="512.000000pt" viewBox="0 0 512.000000 512.000000"
 preserveAspectRatio="xMidYMid meet">
<metadata>
Created by potrace 1.11, written by Peter Selinger 2001-2013
</metadata>
<g transform="translate(0.000000,512.000000) scale(0.100000,-0.100000)"
fill="#000000" stroke="none">
<path d="M2668 5048 c-30 -40 -100 -137 -157 -215 -57 -79 -107 -143 -111
-143 -4 0 -102 54 -216 120 l-209 119 -17 -22 c-30 -39 -106 -199 -132 -280
-46 -142 -60 -239 -60 -417 0 -228 35 -404 128 -640 105 -264 333 -624 531
-838 65 -70 53 -71 191 9 329 193 571 536 659 939 25 114 31 391 12 516 -43
267 -144 491 -312 694 -60 71 -194 196 -242 224 -7 4 -32 -21 -65 -66z"/>
<path d="M4195 3703 c-264 -33 -553 -171 -815 -391 -215 -180 -446 -455 -609
-725 l-23 -38 104 -102 c200 -199 443 -329 716 -384 120 -24 393 -24 514 0
181 36 356 109 514 213 112 74 291 251 362 359 50 75 143 254 156 301 6 20
-12 29 -236 119 -134 53 -244 98 -246 100 -1 1 24 108 58 237 33 129 60 239
60 245 0 13 -125 47 -227 62 -67 10 -261 13 -328 4z"/>
<path d="M711 3649 c-219 -26 -473 -130 -646 -266 -51 -40 -55 -46 -42 -61 12
-15 285 -357 310 -389 7 -9 -39 -64 -164 -194 l-173 -182 91 -88 c184 -179
402 -288 667 -336 111 -20 392 -22 516 -4 201 29 427 90 635 173 99 39 332
151 348 167 10 10 -22 150 -56 247 -59 167 -176 364 -297 496 -293 323 -745
488 -1189 437z"/>
<path d="M1955 2195 c-305 -55 -550 -187 -767 -414 -350 -365 -482 -895 -342
-1378 28 -99 63 -183 74 -183 5 0 115 48 245 106 130 58 238 104 239 102 1 -1
42 -73 91 -158 49 -85 104 -181 122 -212 l34 -58 47 24 c84 43 195 128 282
216 221 222 358 535 406 928 32 264 10 677 -52 965 l-17 77 -146 -1 c-80 0
-177 -7 -216 -14z"/>
<path d="M2572 2099 c-47 -158 -56 -225 -56 -429 0 -164 3 -211 22 -297 62
-285 190 -522 391 -724 208 -207 457 -339 730 -384 116 -20 422 -18 442 2 8 8
0 81 -28 269 -22 143 -38 261 -37 263 2 1 107 34 234 71 128 38 234 70 236 72
7 8 -45 184 -76 258 -157 368 -462 634 -925 805 -213 79 -542 145 -801 161
l-110 7 -22 -74z"/>
</g>
</svg>
